# xmcd
#
# Track frame offsets:
#	150
#	21081
#	38920
#	58740
#	76872
#	101368
#	122832
#
# Disc length: 1908 seconds
# Revision: 0
# Processed by: cddbd v1.5.2PL0 Copyright (c) Steve Scherf et al.
# Submitted via: dBpowerAMP V12.0
#
DISCID=4f077207
DTITLE=Bitzer - Bitzer
DYEAR=2013
DGENRE=Rock
TTITLE0=Riff Raff
TTITLE1=Bad Boy For Love
TTITLE2=No Time For Games
TTITLE3=Gonna See My Baby Tonight
TTITLE4=401 (I'm In Love With My Automobile)
TTITLE5=Marseilles
TTITLE6=401 (I'm In Love With My Automobile) - Radio Mix
EXTD=
EXTT0=
EXTT1=
EXTT2=
EXTT3=
EXTT4=
EXTT5=
EXTT6=
PLAYORDER=
